# xmcd
#
# Track frame offsets:
#	150
#	19366
#	39324
#	62309
#	83194
#	105392
#	129891
#	152228
#	173638
#	200763
#
# Disc length: 3034 seconds
#
# Revision: 0
# Processed by: cddbd v1.5.2PL0 Copyright (c) Steve Scherf et al.
# Submitted via: EZCDAudioConverter 3.1.0.1
#
DISCID=750bd80a
DTITLE=Various Artist - Kiep Nao Co Yeu Nhau
DYEAR=2016
DGENRE=Ballad
TTITLE0=Thai Hien - Hay Khoc Di Em
TTITLE1=Dieu Hien - Kiep Nao Co Yeu Nhau
TTITLE2=Dieu Hien - Toc May
TTITLE3=Ngoc Quy - Ngam Ngui
TTITLE4=Thien Phuong - Hay Yeu Nhau Di
TTITLE5=Uyen Nguyen - Yeu
TTITLE6=Uyen Nguyen - Giot Nang Hong
TTITLE7=Hoang Quoc - Toi Voi Troi Bo Vo
TTITLE8=Ngoc Mai - Nguyet Cam
TTITLE9=Ngoc Mai - Huong Xua
EXTD=
EXTT0=
EXTT1=
EXTT2=
EXTT3=
EXTT4=
EXTT5=
EXTT6=
EXTT7=
EXTT8=
EXTT9=
PLAYORDER=
